{
    "asset" : {
        "generator" : "Khronos glTF Blender I/O v1.6.16",
        "version" : "2.0"
    },
    "scene" : 0,
    "scenes" : [
        {
            "name" : "Scene",
            "nodes" : [
                0
            ]
        }
    ],
    "nodes" : [
        {
            "mesh" : 0,
            "name" : "Tree",
            "scale" : [
                0.1120433360338211,
                0.11204308271408081,
                0.6286858320236206
            ],
            "translation" : [
                0,
                0,
                0.6489585041999817
            ]
        }
    ],
    "materials" : [
        {
            "doubleSided" : true,
            "name" : "Material.008",
            "pbrMetallicRoughness" : {
                "baseColorFactor" : [
                    0.8000000715255737,
                    0.2851314842700958,
                    0.053827330470085144,
                    1
                ],
                "metallicFactor" : 0,
                "roughnessFactor" : 0.5
            }
        },
        {
            "doubleSided" : true,
            "name" : "Material.006",
            "pbrMetallicRoughness" : {
                "baseColorFactor" : [
                    0.08605767041444778,
                    0.7857142686843872,
                    0,
                    1
                ],
                "metallicFactor" : 0,
                "roughnessFactor" : 0.5
            }
        }
    ],
    "meshes" : [
        {
            "name" : "Cube.028",
            "primitives" : [
                {
                    "attributes" : {
                        "POSITION" : 0,
                        "NORMAL" : 1
                    },
                    "indices" : 2,
                    "material" : 0
                },
                {
                    "attributes" : {
                        "POSITION" : 3,
                        "NORMAL" : 4
                    },
                    "indices" : 5,
                    "material" : 1
                }
            ]
        }
    ],
    "accessors" : [
        {
            "bufferView" : 0,
            "componentType" : 5126,
            "count" : 510,
            "max" : [
                1.4046385288238525,
                1.5947635173797607,
                0.7187368869781494
            ],
            "min" : [
                -1.315014123916626,
                -3.407431125640869,
                -1.0563452243804932
            ],
            "type" : "VEC3"
        },
        {
            "bufferView" : 1,
            "componentType" : 5126,
            "count" : 510,
            "type" : "VEC3"
        },
        {
            "bufferView" : 2,
            "componentType" : 5123,
            "count" : 768,
            "type" : "SCALAR"
        },
        {
            "bufferView" : 3,
            "componentType" : 5126,
            "count" : 606,
            "max" : [
                2.305020332336426,
                2.49172306060791,
                0.9599524736404419
            ],
            "min" : [
                -2.7587802410125732,
                -3.6857950687408447,
                -0.10442602634429932
            ],
            "type" : "VEC3"
        },
        {
            "bufferView" : 4,
            "componentType" : 5126,
            "count" : 606,
            "type" : "VEC3"
        },
        {
            "bufferView" : 5,
            "componentType" : 5123,
            "count" : 702,
            "type" : "SCALAR"
        }
    ],
    "bufferViews" : [
        {
            "buffer" : 0,
            "byteLength" : 6120,
            "byteOffset" : 0
        },
        {
            "buffer" : 0,
            "byteLength" : 6120,
            "byteOffset" : 6120
        },
        {
            "buffer" : 0,
            "byteLength" : 1536,
            "byteOffset" : 12240
        },
        {
            "buffer" : 0,
            "byteLength" : 7272,
            "byteOffset" : 13776
        },
        {
            "buffer" : 0,
            "byteLength" : 7272,
            "byteOffset" : 21048
        },
        {
            "buffer" : 0,
            "byteLength" : 1404,
            "byteOffset" : 28320
        }
    ],
    "buffers" : [
        {
            "byteLength" : 29724,
            "uri" : "data:application/octet-stream;base64,"
        }
    ]
}
